<?xml version="1.0" encoding="UTF-8"?>
<svg version="1.1" xmlns="http://www.w3.org/2000/svg" width="32" height="32">
<path d="M0 0 C10.56 0 21.12 0 32 0 C32 10.56 32 21.12 32 32 C21.44 32 10.88 32 0 32 C0 21.44 0 10.88 0 0 Z " fill="#080822" transform="translate(0,0)"/>
<path d="M0 0 C5.94 0 11.88 0 18 0 C18 10.56 18 21.12 18 32 C15.03 32 12.06 32 9 32 C9 27.71 9 23.42 9 19 C3.39 19 -2.22 19 -8 19 C-6.68 16.69 -5.36 14.38 -4 12 C-2.68 12 -1.36 12 0 12 C0 8.04 0 4.08 0 0 Z " fill="#2C2BAF" transform="translate(14,0)"/>
<path d="M0 0 C0 4.29 0 8.58 0 13 C-3.3 13 -6.6 13 -10 13 C-10 8.71 -10 4.42 -10 0 C-6.30581799 -1.231394 -3.7943739 -0.64432764 0 0 Z " fill="#1C1B6F" transform="translate(23,19)"/>
<path d="M0 0 C1.32 0 2.64 0 4 0 C4 10.56 4 21.12 4 32 C2.68 32 1.36 32 0 32 C0 21.44 0 10.88 0 0 Z " fill="#02020B" transform="translate(0,0)"/>
<path d="M0 0 C0.66 0 1.32 0 2 0 C2.33 4.29 2.66 8.58 3 13 C4.98 13 6.96 13 9 13 C9.38218767 14.65614657 9.71395102 16.32457024 10 18 C9 19 9 19 5.18359375 19.09765625 C3.60153318 19.09098089 2.01948841 19.07901875 0.4375 19.0625 C-0.36880859 19.05798828 -1.17511719 19.05347656 -2.00585938 19.04882812 C-4.00393756 19.03700518 -6.00197783 19.01906914 -8 19 C-6.68 16.69 -5.36 14.38 -4 12 C-2.68 12 -1.36 12 0 12 C0 8.04 0 4.08 0 0 Z " fill="#222164" transform="translate(14,0)"/>
<path d="M0 0 C2.64 0 5.28 0 8 0 C8 3.96 8 7.92 8 12 C5.36 12.66 2.72 13.32 0 14 C0 9.38 0 4.76 0 0 Z " fill="#1F1E75" transform="translate(16,0)"/>
<path d="M0 0 C0.99 0 1.98 0 3 0 C3 10.56 3 21.12 3 32 C2.01 32 1.02 32 0 32 C0 21.44 0 10.88 0 0 Z " fill="#3230C2" transform="translate(29,0)"/>
<path d="M0 0 C1.32 0 2.64 0 4 0 C4 4.62 4 9.24 4 14 C2.35 14 0.7 14 -1 14 C-1.02685938 11.85423363 -1.04633088 9.70837355 -1.0625 7.5625 C-1.07410156 6.36753906 -1.08570313 5.17257813 -1.09765625 3.94140625 C-1 1 -1 1 0 0 Z " fill="#111042" transform="translate(9,18)"/>
<path d="M0 0 C1.65 0 3.3 0 5 0 C5 3.96 5 7.92 5 12 C3.68 12.33 2.36 12.66 1 13 C0.34 13.66 -0.32 14.32 -1 15 C-0.67 10.05 -0.34 5.1 0 0 Z " fill="#131348" transform="translate(9,0)"/>
<path d="M0 0 C1.32 0 2.64 0 4 0 C4 4.29 4 8.58 4 13 C2.68 13 1.36 13 0 13 C0 8.71 0 4.42 0 0 Z " fill="#222085" transform="translate(19,19)"/>
<path d="M0 0 C0.99 0 1.98 0 3 0 C3.3690205 12.66970387 3.3690205 12.66970387 1 18 C0.67 18 0.34 18 0 18 C0 12.06 0 6.12 0 0 Z " fill="#0D0D2F" transform="translate(6,0)"/>
<path d="M0 0 C0.66 0 1.32 0 2 0 C2 6.27 2 12.54 2 19 C1.34 19 0.68 19 0 19 C-0.33 17.35 -0.66 15.7 -1 14 C-2.65 13.67 -4.3 13.34 -6 13 C-6 12.67 -6 12.34 -6 12 C-4.02 12 -2.04 12 0 12 C0 8.04 0 4.08 0 0 Z " fill="#3B3AA5" transform="translate(24,0)"/>
<path d="M0 0 C1.4540625 0.0309375 1.4540625 0.0309375 2.9375 0.0625 C3.31968767 1.71864657 3.65145102 3.38707024 3.9375 5.0625 C2.9375 6.0625 2.9375 6.0625 -0.125 6.125 C-1.094375 6.104375 -2.06375 6.08375 -3.0625 6.0625 C-3.44468767 4.40635343 -3.77645102 2.73792976 -4.0625 1.0625 C-3.0625 0.0625 -3.0625 0.0625 0 0 Z " fill="#9D9CC6" transform="translate(20.0625,12.9375)"/>
<path d="M0 0 C0.99 0.33 1.98 0.66 3 1 C3 5.29 3 9.58 3 14 C2.01 14 1.02 14 0 14 C0 9.38 0 4.76 0 0 Z " fill="#28269C" transform="translate(23,18)"/>
<path d="M0 0 C0.99 0 1.98 0 3 0 C3 4.29 3 8.58 3 13 C2.01 13 1.02 13 0 13 C0 8.71 0 4.42 0 0 Z " fill="#17165C" transform="translate(13,19)"/>
<path d="M0 0 C1.32 0 2.64 0 4 0 C4.99 1.98 5.98 3.96 7 6 C3.7 6 0.4 6 -3 6 C-2.01 4.02 -1.02 2.04 0 0 Z " fill="#C7C7D2" transform="translate(9,13)"/>
<path d="M0 0 C0.99 0 1.98 0 3 0 C3 3.96 3 7.92 3 12 C2.01 12 1.02 12 0 12 C0 8.04 0 4.08 0 0 Z " fill="#24238F" transform="translate(21,0)"/>
<path d="M0 0 C1.98 0 3.96 0 6 0 C6.33 1.65 6.66 3.3 7 5 C6.01 4.67 5.02 4.34 4 4 C4 3.34 4 2.68 4 2 C2.35 2.33 0.7 2.66 -1 3 C-0.67 2.01 -0.34 1.02 0 0 Z " fill="#F5F5F9" transform="translate(17,13)"/>
<path d="M0 0 C1.32 0 2.64 0 4 0 C4.99 1.98 5.98 3.96 7 6 C6.01 6 5.02 6 4 6 C3.896875 5.360625 3.79375 4.72125 3.6875 4.0625 C3.460625 3.381875 3.23375 2.70125 3 2 C2.01 1.67 1.02 1.34 0 1 C0 0.67 0 0.34 0 0 Z " fill="#DFDEE7" transform="translate(9,13)"/>
</svg>
